HIERARCHY
ROOT Hips
{
	OFFSET 0.000000 1.471914 24.280096
	CHANNELS 6 Xposition Yposition Zposition Xrotation Yrotation Zrotation
	JOINT Spine
	{
		OFFSET 0.000000 0.900110 1.860670
		CHANNELS 6 Xposition Yposition Zposition Xrotation Yrotation Zrotation
		JOINT Spine1
		{
			OFFSET 0.000000 0.400320 2.270309
			CHANNELS 6 Xposition Yposition Zposition Xrotation Yrotation Zrotation
			JOINT Spine2
			{
				OFFSET 0.000000 0.200920 2.296560
				CHANNELS 6 Xposition Yposition Zposition Xrotation Yrotation Zrotation
				JOINT Spine3
				{
					OFFSET 0.000000 0.000000 2.305330
					CHANNELS 6 Xposition Yposition Zposition Xrotation Yrotation Zrotation
					JOINT Neck
					{
						OFFSET 0.000000 -0.864490 6.051487
						CHANNELS 6 Xposition Yposition Zposition Xrotation Yrotation Zrotation
						JOINT Head
						{
							OFFSET 0.000000 -0.550429 3.121674
							CHANNELS 6 Xposition Yposition Zposition Xrotation Yrotation Zrotation
							End Site
							{
								OFFSET 0.000000 0.000000 3.731750
							}
						}
					}
					JOINT RightShoulder
					{
						OFFSET -0.788280 -1.313800 4.256718
						CHANNELS 6 Xposition Yposition Zposition Xrotation Yrotation Zrotation
						JOINT RightArm
						{
							OFFSET -3.915130 0.000000 0.000000
							CHANNELS 6 Xposition Yposition Zposition Xrotation Yrotation Zrotation
							JOINT RightForeArm
							{
								OFFSET -6.914910 0.000000 0.000000
								CHANNELS 6 Xposition Yposition Zposition Xrotation Yrotation Zrotation
								JOINT RightHand
								{
									OFFSET -6.096219 0.000000 0.000000
									CHANNELS 6 Xposition Yposition Zposition Xrotation Yrotation Zrotation
									JOINT RightHandEnd
									{
										OFFSET -1.749950 0.000000 0.000000
										CHANNELS 6 Xposition Yposition Zposition Xrotation Yrotation Zrotation
										End Site
										{
											OFFSET -1.749950 0.000000 0.000000
										}
									}
									JOINT RightHandThumb1
									{
										OFFSET -0.699980 -1.166630 -0.466648
										CHANNELS 6 Xposition Yposition Zposition Xrotation Yrotation Zrotation
										End Site
										{
											OFFSET -1.690319 -0.452920 0.000000
										}
									}
								}
							}
						}
					}
					JOINT LeftShoulder
					{
						OFFSET 0.788280 -1.313800 4.256718
						CHANNELS 6 Xposition Yposition Zposition Xrotation Yrotation Zrotation
						JOINT LeftArm
						{
							OFFSET 3.915130 0.000000 0.000000
							CHANNELS 6 Xposition Yposition Zposition Xrotation Yrotation Zrotation
							JOINT LeftForeArm
							{
								OFFSET 6.914910 0.000000 0.000000
								CHANNELS 6 Xposition Yposition Zposition Xrotation Yrotation Zrotation
								JOINT LeftHand
								{
									OFFSET 6.096219 0.000000 0.000000
									CHANNELS 6 Xposition Yposition Zposition Xrotation Yrotation Zrotation
									JOINT LeftHandEnd
									{
										OFFSET 1.749950 0.000000 0.000000
										CHANNELS 6 Xposition Yposition Zposition Xrotation Yrotation Zrotation
										End Site
										{
											OFFSET 1.749950 0.000000 0.000000
										}
									}
									JOINT LeftHandThumb1
									{
										OFFSET 0.699980 -1.166630 -0.466648
										CHANNELS 6 Xposition Yposition Zposition Xrotation Yrotation Zrotation
										End Site
										{
											OFFSET 1.690319 -0.452920 0.000000
										}
									}
								}
							}
						}
					}
				}
			}
		}
	}
	JOINT RightUpLeg
	{
		OFFSET -2.338570 -0.252550 -0.551512
		CHANNELS 6 Xposition Yposition Zposition Xrotation Yrotation Zrotation
		JOINT RightLeg
		{
			OFFSET 0.000000 0.000000 -10.744959
			CHANNELS 6 Xposition Yposition Zposition Xrotation Yrotation Zrotation
			JOINT RightFoot
			{
				OFFSET 0.000000 -0.000001 -10.930849
				CHANNELS 6 Xposition Yposition Zposition Xrotation Yrotation Zrotation
				JOINT RightToeBase
				{
					OFFSET 0.000000 -4.087269 -1.487650
					CHANNELS 6 Xposition Yposition Zposition Xrotation Yrotation Zrotation
					End Site
					{
						OFFSET 0.000000 -1.891870 0.000000
					}
				}
			}
		}
	}
	JOINT LeftUpLeg
	{
		OFFSET 2.338570 -0.252550 -0.551512
		CHANNELS 6 Xposition Yposition Zposition Xrotation Yrotation Zrotation
		JOINT LeftLeg
		{
			OFFSET 0.000000 0.000000 -10.744959
			CHANNELS 6 Xposition Yposition Zposition Xrotation Yrotation Zrotation
			JOINT LeftFoot
			{
				OFFSET 0.000000 -0.000001 -10.930849
				CHANNELS 6 Xposition Yposition Zposition Xrotation Yrotation Zrotation
				JOINT LeftToeBase
				{
					OFFSET 0.000000 -4.087269 -1.487650
					CHANNELS 6 Xposition Yposition Zposition Xrotation Yrotation Zrotation
					End Site
					{
						OFFSET 0.000000 -1.891870 0.000000
					}
				}
			}
		}
	}
}
MOTION
Frames: 5
Frame Time: 0.041667
-0.000018 26.688889 40.900051 -11.985889 4.156763 -14.476221 -0.000012 0.900090 1.860677 25.186423 -2.496445 -1.959557 -0.000002 0.400281 2.270301 0.000010 0.000000 0.000012 0.000010 0.200867 2.296553 -0.000002 -0.000001 0.000005 0.000016 0.000027 2.305315 0.000013 0.000003 -2.304967 -0.000026 -0.864438 6.051371 -0.339551 -2.411613 -177.756616 0.000051 -0.550421 3.121654 -0.000010 -0.000001 -0.000008 -0.788281 -1.313741 4.256837 -135.625577 38.520030 -79.251928 -3.915129 -0.000016 -0.000012 -0.000002 -0.000004 0.000004 -6.914866 0.000000 0.000023 0.000003 0.000004 -129.948201 -6.096198 0.000011 0.000031 0.000095 0.000218 -0.000069 -1.749895 -0.000017 0.000021 -0.000000 0.000003 -0.000002 -0.699960 -1.166599 -0.466631 -0.000019 -0.000009 -0.000026 0.788256 -1.313757 4.256772 -135.952853 -32.568446 77.168071 3.915245 0.000006 -0.000034 0.000004 0.000004 0.000003 6.914919 -0.000072 0.000001 -0.000002 -0.000017 126.769254 6.096266 0.000177 -0.000040 0.000156 -0.000212 0.000026 1.749990 0.000011 0.000071 -0.000011 -0.000007 0.000007 0.699988 -1.166580 -0.466644 0.000039 -0.000006 -0.000036 -2.338596 -0.252549 -0.551454 18.696268 1.481009 -1.464916 0.000008 -0.000011 -10.744953 12.136415 2.385426 -0.597194 -0.000028 0.000066 -10.930848 0.000044 -0.000006 0.000002 -0.000028 -4.087233 -1.487621 0.000004 0.000003 0.000001 2.338581 -0.252534 -0.551488 18.984263 -6.495765 -1.517756 -0.000018 -0.000003 -10.744924 12.041643 0.524544 -2.282841 -0.000001 -0.000008 -10.930867 -0.000027 -0.000006 0.000003 -0.000042 -4.087202 -1.487646 0.000001 0.000001 -0.000007 
-0.000013 26.688889 40.900047 -11.732759 4.168824 -14.774792 -0.000010 0.900090 1.860687 25.248202 -2.530680 -1.982921 -0.000001 0.400274 2.270309 0.000009 -0.000000 0.000011 0.000011 0.200869 2.296555 0.000000 -0.000001 0.000004 0.000014 0.000034 2.305315 0.000014 0.000002 -2.224442 -0.000025 -0.864439 6.051373 -0.796545 -2.595101 -178.252938 0.000052 -0.550418 3.121650 -0.000010 -0.000001 -0.000010 -0.788276 -1.313744 4.256834 -136.200993 38.536877 -79.223296 -3.915129 -0.000020 -0.000016 0.000002 -0.000006 0.000003 -6.914856 -0.000001 0.000022 0.000003 0.000004 -129.733501 -6.096199 0.000017 0.000028 0.000099 0.000216 -0.000072 -1.749900 -0.000015 0.000013 0.000001 0.000004 -0.000000 -0.699963 -1.166600 -0.466635 -0.000019 -0.000004 -0.000028 0.788261 -1.313764 4.256773 -136.457781 -32.718904 76.946685 3.915246 0.000006 -0.000034 0.000004 0.000001 0.000003 6.914924 -0.000072 -0.000004 -0.000004 -0.000018 127.045822 6.096268 0.000172 -0.000035 0.000161 -0.000211 0.000026 1.749989 0.000011 0.000072 -0.000009 -0.000008 0.000004 0.699984 -1.166584 -0.466634 0.000039 -0.000005 -0.000042 -2.338595 -0.252546 -0.551445 18.173494 1.899378 -1.438419 0.000009 -0.000012 -10.744952 12.487141 1.879331 -0.535597 -0.000030 0.000065 -10.930851 0.000043 -0.000007 0.000003 -0.000029 -4.087234 -1.487628 0.000002 0.000002 0.000001 2.338583 -0.252535 -0.551484 18.618182 -6.738778 -1.505152 -0.000017 -0.000002 -10.744919 12.513759 1.294084 -2.430774 -0.000000 0.000000 -10.930864 -0.000020 -0.000003 0.000003 -0.000042 -4.087204 -1.487648 -0.000001 0.000001 -0.000006 
-0.000010 26.688885 40.900055 -11.424928 4.037371 -14.962612 -0.000010 0.900090 1.860677 25.169877 -2.546999 -2.070682 -0.000002 0.400278 2.270303 0.000006 -0.000000 0.000012 0.000010 0.200872 2.296555 0.000001 -0.000001 0.000001 0.000017 0.000026 2.305315 0.000014 -0.000001 -2.174226 -0.000025 -0.864429 6.051373 -0.980640 -2.584697 -178.038894 0.000052 -0.550423 3.121658 -0.000010 -0.000001 -0.000009 -0.788277 -1.313740 4.256837 -136.677672 38.714219 -79.237462 -3.915130 -0.000017 -0.000016 0.000003 -0.000004 0.000005 -6.914857 0.000004 0.000023 -0.000000 0.000005 -129.931836 -6.096196 0.000013 0.000025 0.000099 0.000218 -0.000073 -1.749903 -0.000021 0.000015 -0.000000 0.000005 0.000002 -0.699965 -1.166603 -0.466635 -0.000018 -0.000008 -0.000023 0.788260 -1.313755 4.256773 -136.724049 -32.716743 76.922724 3.915254 0.000006 -0.000038 0.000003 -0.000000 0.000004 6.914919 -0.000068 0.000004 -0.000005 -0.000020 127.357784 6.096262 0.000170 -0.000043 0.000161 -0.000212 0.000026 1.749994 0.000014 0.000067 -0.000009 -0.000010 0.000003 0.699987 -1.166581 -0.466635 0.000039 -0.000007 -0.000042 -2.338594 -0.252545 -0.551449 17.572005 2.632222 -1.457105 0.000008 -0.000011 -10.744954 12.829418 0.874847 -0.436692 -0.000030 0.000069 -10.930851 0.000041 -0.000005 0.000002 -0.000027 -4.087231 -1.487622 0.000007 0.000003 0.000000 2.338583 -0.252535 -0.551488 18.298340 -6.876060 -1.551275 -0.000017 -0.000007 -10.744922 12.914473 2.194315 -2.581203 0.000000 -0.000003 -10.930861 -0.000022 -0.000003 0.000004 -0.000042 -4.087200 -1.487650 -0.000003 -0.000001 -0.000005 
-0.000008 26.688894 40.900055 -11.078414 3.950301 -15.062447 -0.000011 0.900094 1.860682 25.252647 -2.564640 -2.120501 -0.000002 0.400280 2.270301 0.000007 0.000000 0.000012 0.000011 0.200867 2.296555 -0.000001 -0.000001 0.000003 0.000016 0.000032 2.305307 0.000015 0.000001 -2.121376 -0.000025 -0.864434 6.051372 -1.218664 -2.699620 -178.106089 0.000051 -0.550423 3.121662 -0.000010 -0.000003 -0.000008 -0.788277 -1.313737 4.256837 -136.726167 38.225075 -79.446609 -3.915132 -0.000018 -0.000012 0.000002 -0.000003 0.000003 -6.914863 0.000003 0.000022 -0.000001 0.000002 -129.932301 -6.096199 0.000010 0.000024 0.000103 0.000218 -0.000074 -1.749894 -0.000020 0.000025 -0.000003 0.000007 -0.000003 -0.699964 -1.166596 -0.466630 -0.000023 -0.000009 -0.000028 0.788257 -1.313760 4.256772 -136.943859 -31.792744 76.778457 3.915250 0.000006 -0.000042 0.000004 0.000000 0.000002 6.914929 -0.000070 0.000000 -0.000007 -0.000015 127.767704 6.096260 0.000171 -0.000039 0.000159 -0.000212 0.000030 1.749988 0.000007 0.000080 -0.000010 -0.000009 -0.000001 0.699984 -1.166586 -0.466637 0.000033 -0.000006 -0.000043 -2.338595 -0.252545 -0.551450 16.938919 3.093860 -1.434876 0.000008 -0.000013 -10.744950 13.297847 0.335664 -0.371942 -0.000028 0.000062 -10.930850 0.000039 -0.000007 0.000002 -0.000029 -4.087233 -1.487622 -0.000002 0.000002 0.000006 2.338582 -0.252533 -0.551489 17.658204 -7.040428 -1.531403 -0.000018 -0.000002 -10.744925 13.269393 2.835947 -2.711159 0.000000 -0.000003 -10.930861 -0.000020 -0.000004 0.000000 -0.000041 -4.087201 -1.487647 -0.000004 -0.000000 -0.000005 
-0.000007 26.688896 40.900063 -10.656402 3.828198 -15.298787 -0.000010 0.900088 1.860683 25.254920 -2.666951 -2.119698 -0.000001 0.400280 2.270299 0.000007 -0.000001 0.000011 0.000011 0.200864 2.296558 0.000001 -0.000000 0.000005 0.000015 0.000031 2.305307 0.000013 0.000001 -2.074534 -0.000023 -0.864437 6.051367 -1.594603 -2.979280 -177.390955 0.000052 -0.550421 3.121658 -0.000010 -0.000002 -0.000006 -0.788276 -1.313742 4.256833 -137.335338 37.812139 -79.238152 -3.915127 -0.000023 -0.000008 -0.000003 -0.000006 0.000004 -6.914868 0.000002 0.000019 -0.000003 0.000002 -129.760480 -6.096195 0.000013 0.000025 0.000097 0.000215 -0.000073 -1.749899 -0.000014 0.000025 -0.000002 0.000006 0.000001 -0.699961 -1.166597 -0.466634 -0.000019 -0.000009 -0.000029 0.788263 -1.313765 4.256766 -137.214033 -31.940157 76.507025 3.915252 0.000006 -0.000038 0.000003 0.000000 0.000003 6.914929 -0.000070 0.000003 -0.000009 -0.000013 128.210724 6.096268 0.000172 -0.000035 0.000161 -0.000214 0.000024 1.749992 0.000009 0.000076 -0.000009 -0.000008 0.000010 0.699984 -1.166585 -0.466638 0.000039 -0.000005 -0.000042 -2.338593 -0.252552 -0.551452 16.014651 3.823431 -1.357277 0.000009 -0.000014 -10.744955 14.048357 -0.674849 -0.220172 -0.000027 0.000068 -10.930849 0.000036 -0.000009 0.000004 -0.000027 -4.087233 -1.487624 -0.000000 0.000001 -0.000001 2.338583 -0.252538 -0.551487 16.894674 -7.369117 -1.468175 -0.000019 -0.000003 -10.744924 13.889883 4.143688 -2.910460 -0.000000 -0.000005 -10.930863 -0.000020 -0.000002 0.000005 -0.000042 -4.087205 -1.487651 -0.000004 0.000000 -0.000005 
